<svg width="132" height="30" viewBox="0 0 132 30" fill="none" xmlns="http://www.w3.org/2000/svg">
<path d="M57.1159 0.0980315H7.71046C7.71046 0.0980315 -0.0441336 -0.151928 6.61618e-05 6.14606L0.0295326 9.95916C0.0295326 9.95916 -0.427198 16.8355 8.16719 16.8355H22.0754C22.0754 16.8355 26.3136 16.8355 26.3382 20.4378L26.3529 22.4669C26.3529 22.4669 26.7114 25.9467 22.0213 25.9467H6.90504C6.90504 25.9467 4.16466 25.6968 4.14011 22.8002H0.122843L0.132665 22.9962C0.132665 22.9962 -0.161999 27.8582 5.38752 29.8481H24.0987C24.0987 29.8481 30.4095 29.8628 30.3653 23.6628L30.3309 18.7469C30.3309 18.7469 30.4782 12.7234 22.4241 12.7234H7.74975C7.74975 12.7234 4.04188 13.0567 4.01733 9.41023L3.99769 6.75871C3.99769 6.75871 4.08608 3.88663 7.73993 3.88663H57.0079C57.0079 3.88663 60.3278 3.7788 60.3621 8.19475L60.4653 21.6729C60.4653 21.6729 60.7157 25.8732 56.3989 25.8732H43.1685C43.1685 25.8732 38.3556 26.231 38.3212 22.0062L38.1984 5.65105C38.1984 5.65105 33.9995 6.86653 34.0338 11.2874L34.1222 23.0551C34.1222 23.0551 34.2843 29.853 41.15 29.853H57.5923C57.5923 29.853 64.404 30.2255 64.3499 23.1384L64.2321 7.31254C64.2272 7.30764 64.4629 0.0980315 57.1159 0.0980315Z" fill="white"></path>
<path d="M132 6.7685C132 6.7685 131.705 0.0784186 124.849 0.0784186H108.692C108.692 0.0784186 101.89 -0.289169 101.944 6.78321L102.092 25.9663H75.498C71.908 25.9663 72.0799 21.5357 72.0799 21.5357L72.0455 16.9727H90.3147C98.2265 16.9727 98.1774 10.1601 98.1774 10.1601L98.1528 6.37151C98.1037 0 91.9501 0 91.9501 0C91.9501 0 83.6013 0 75.9302 0C67.5322 0 68.2443 7.49878 68.2443 7.49878L68.3524 22.1826C68.4162 30.6813 75.5913 29.9118 75.5913 29.9118H102.116V29.9216L102.828 29.9118H105.436V29.8677L105.986 29.8579L105.824 8.25355C105.824 8.25355 105.569 4.06306 109.88 4.06306H122.831C122.831 4.06306 127.639 3.70528 127.668 7.92518L127.688 9.39062L127.796 22.6336H127.791L127.776 30.0098C127.776 30.0098 131.681 28.8041 131.99 24.5058V22.6336V9.15537V6.7685H132ZM76.9468 3.70528H89.971C94.5579 3.70528 94.2289 7.67032 94.2289 7.67032L94.2338 8.31237C94.2632 12.4882 90.3884 12.4882 90.3884 12.4882H72.296L72.2616 8.12122C72.2223 2.975 76.9468 3.70528 76.9468 3.70528Z" fill="white"></path>
</svg>